<svg xmlns="http://www.w3.org/2000/svg" xmlns:xlink="http://www.w3.org/1999/xlink" viewBox="0 0 304.41 68.17"><defs><style>.cls-1{fill:#b4babb;}.cls-2{fill:url(#radial-gradient);}.cls-3{fill:#0068bf;}.cls-4{fill:#8e9798;}</style><radialGradient id="radial-gradient" cx="29.39" cy="34.09" r="31.82" gradientUnits="userSpaceOnUse"><stop offset="0" stop-color="#5bbbf0"/><stop offset="0.16" stop-color="#53b1e9"/><stop offset="0.42" stop-color="#3d95d6"/><stop offset="0.77" stop-color="#1a67b8"/><stop offset="1" stop-color="#0046a2"/></radialGradient></defs><title>logo</title><g id="Слой_2" data-name="Слой 2"><g id="Layer_1" data-name="Layer 1"><polygon class="cls-1" points="27.22 47.16 18.67 61.11 25.87 46.39 14.1 57.8 24.75 45.33 10.51 53.45 23.91 44.02 8.11 48.35 23.37 42.58 22.68 42.58 21.75 42.58 0 42.58 0 51.12 17.07 68.17 27.22 68.17 27.22 52.44 23.91 63.19 27.22 47.2 27.22 47.16"/><polygon class="cls-1" points="41.7 0 30.89 0 30.89 19.67 35.1 5.99 31.78 22.04 40.35 8.06 33.14 22.78 44.91 11.38 34.27 23.84 48.51 15.73 35.1 25.15 50.91 20.83 35.93 26.49 42.51 26.49 44.13 26.49 58.77 26.49 58.77 17.05 41.7 0"/><polygon class="cls-2" points="58.77 30.66 46.02 30.66 42.17 30.66 37.2 30.66 21.81 30.66 23.63 29.69 16.84 30.66 12.99 30.66 23.34 28.17 7.05 26.37 23.44 26.63 8.11 20.83 23.91 25.15 10.51 15.73 24.75 23.84 14.1 11.38 25.87 22.78 18.67 8.06 27.22 22.02 27.22 21.98 23.91 5.99 27.22 16.74 27.22 0 17.07 0 0 17.05 0 30.83 0 37.34 0.04 37.34 0.04 38.24 33.14 38.24 37.73 38.24 35.38 39.48 44.12 38.24 47.18 38.24 35.67 41.01 51.96 42.81 35.58 42.55 50.91 48.35 35.1 44.02 48.51 53.45 34.27 45.33 44.91 57.8 33.14 46.39 40.35 61.11 31.78 47.14 35.1 63.19 30.89 49.51 30.89 68.17 41.7 68.17 58.77 51.12 58.77 37.34 58.77 37.34 58.77 30.66"/><path class="cls-3" d="M90,43c-2.16-.1-4-.24-5.61-.42V39.93c1.71.15,3.59.28,5.66.4s3.78.18,5.12.18a37.1,37.1,0,0,0,4.31-.2,8.16,8.16,0,0,0,2.79-.82,2.88,2.88,0,0,0,1.5-1.79,11.14,11.14,0,0,0,.37-3.2,14.69,14.69,0,0,0-.27-3.44,2.1,2.1,0,0,0-1.33-1.4A16.43,16.43,0,0,0,98.77,29l-8.62-.84a9.83,9.83,0,0,1-4.51-1.24,4.3,4.3,0,0,1-1.87-2.45,15.53,15.53,0,0,1-.42-4.08,8.9,8.9,0,0,1,1.31-5.28,6.47,6.47,0,0,1,3.82-2.41,29.68,29.68,0,0,1,6.79-.62c1.91,0,3.82.06,5.74.18a39.45,39.45,0,0,1,4.56.49v2.51c-1.32-.14-2.89-.27-4.73-.37s-3.53-.16-5.07-.16a32.35,32.35,0,0,0-4.68.27,8.53,8.53,0,0,0-2.81.84,3,3,0,0,0-1.43,1.68,9.56,9.56,0,0,0-.34,2.87,9.64,9.64,0,0,0,.32,2.93,2.2,2.2,0,0,0,1.23,1.37,9.85,9.85,0,0,0,2.93.64l8.37.8a20.92,20.92,0,0,1,5,.93,3.91,3.91,0,0,1,2.34,2.38,15.41,15.41,0,0,1,.54,4.86q0,4-1.33,5.9a5.89,5.89,0,0,1-3.62,2.45,29.41,29.41,0,0,1-6.28.53Q93.21,43.16,90,43Z"/><path class="cls-3" d="M121.08,42.8V15.16h-11V12.42h25.26v2.74h-11V42.8Z"/><path class="cls-3" d="M139.75,42.8V12.42h21.57v2.65H142.9v11H159v2.65H142.9V40.15h18.42V42.8Z"/><path class="cls-3" d="M188.36,42.8l-5.47-12.41H170V42.8h-3.16V12.42h15.37a11.94,11.94,0,0,1,6,1.17,5.4,5.4,0,0,1,2.56,3.05,16,16,0,0,1,.59,4.79,12.84,12.84,0,0,1-1,5.47q-1,2.22-4.38,3l5.81,12.89ZM185.7,27a3.54,3.54,0,0,0,2-2,11.08,11.08,0,0,0,.47-3.6,13.32,13.32,0,0,0-.39-3.67,3.36,3.36,0,0,0-1.87-2,11.28,11.28,0,0,0-4.59-.7H170V27.74h10.83A12.49,12.49,0,0,0,185.7,27Z"/><path class="cls-3" d="M198,42.8V12.42h3.15V42.8Z"/><path class="cls-3" d="M209.19,42.8V12.42h3.15V40.07h16.45V42.8Z"/><path class="cls-3" d="M237.26,42.8V30.92l-12.5-18.5h3.49l10.49,15.46h.35l10.54-15.46H253l-12.56,18.5V42.8Z"/><path class="cls-3" d="M264,42.8V15.16H253V12.42h25.26v2.74h-11V42.8Z"/><path class="cls-3" d="M282.67,42.8V12.42h21.58v2.65H285.83v11h16.1v2.65h-16.1V40.15h18.42V42.8Z"/><path class="cls-4" d="M92.45,51.78v4.63a8.43,8.43,0,0,1-.23,2.35,1.57,1.57,0,0,1-.94,1.05,6.56,6.56,0,0,1-2.33.3,6.27,6.27,0,0,1-2.32-.31,1.59,1.59,0,0,1-.95-1,8.35,8.35,0,0,1-.24-2.35V51.78h1.14v5a6.19,6.19,0,0,0,.13,1.54.94.94,0,0,0,.61.63,5.23,5.23,0,0,0,1.63.18A5.14,5.14,0,0,0,90.58,59a.94.94,0,0,0,.6-.63,6.76,6.76,0,0,0,.12-1.54v-5Z"/><path class="cls-4" d="M97.79,60l-3.32-8.23h1.2l2.82,7h.06l2.83-7h1.16L99.23,60Z"/><path class="cls-4" d="M109.09,60.07c-.41,0-.8,0-1.15,0a6.77,6.77,0,0,1-2.42-.32,1.76,1.76,0,0,1-1-1.18,10.35,10.35,0,0,1-.26-2.71,10.35,10.35,0,0,1,.26-2.71,1.78,1.78,0,0,1,1-1.19,6.77,6.77,0,0,1,2.42-.32c.36,0,.74,0,1.14,0a8.35,8.35,0,0,1,1,.13v.9a15.44,15.44,0,0,0-1.84-.12,6.78,6.78,0,0,0-2,.19,1.11,1.11,0,0,0-.72.83,9.4,9.4,0,0,0-.18,2.24,9.35,9.35,0,0,0,.18,2.23,1.11,1.11,0,0,0,.72.83,6.78,6.78,0,0,0,2,.19,13.92,13.92,0,0,0,1.9-.12V60A10.08,10.08,0,0,1,109.09,60.07Z"/><path class="cls-4" d="M116.16,51.78h2.92a8.44,8.44,0,0,1,2.7.3,1.56,1.56,0,0,1,1,1.1A12,12,0,0,1,123,55.9a11.93,11.93,0,0,1-.21,2.71,1.56,1.56,0,0,1-1,1.1,8.44,8.44,0,0,1-2.7.3h-2.92Zm2.74,7.28a9.43,9.43,0,0,0,2.1-.15,1,1,0,0,0,.7-.75,10.1,10.1,0,0,0,.16-2.26,10.08,10.08,0,0,0-.17-2.27,1,1,0,0,0-.7-.75,9.64,9.64,0,0,0-2.09-.14h-1.59v6.32Z"/><path class="cls-4" d="M125.76,60V51.78h1.15V60Z"/><path class="cls-4" d="M131.4,60.06c-.6,0-1.13-.07-1.6-.12V59c1.16.1,2.13.15,2.9.15a11,11,0,0,0,1.14,0,2.36,2.36,0,0,0,.72-.2.7.7,0,0,0,.34-.42,2.6,2.6,0,0,0,.08-.75,3.66,3.66,0,0,0-.06-.8.54.54,0,0,0-.32-.34,3.26,3.26,0,0,0-.85-.16l-2.27-.22a2.9,2.9,0,0,1-1.24-.36,1.27,1.27,0,0,1-.56-.7,3.68,3.68,0,0,1-.14-1.15,2.38,2.38,0,0,1,.38-1.48,1.8,1.8,0,0,1,1.06-.67,8.25,8.25,0,0,1,1.85-.17c.52,0,1,0,1.58.06s1,.09,1.27.14v.91c-.34,0-.76-.08-1.26-.11s-1,0-1.39,0a9.5,9.5,0,0,0-1.2.06,2.16,2.16,0,0,0-.71.2.75.75,0,0,0-.36.39,2.33,2.33,0,0,0-.08.68,2.37,2.37,0,0,0,.08.71.54.54,0,0,0,.31.32,2.42,2.42,0,0,0,.75.15l2.24.23a4.46,4.46,0,0,1,1.24.25,1.14,1.14,0,0,1,.64.65,3.56,3.56,0,0,1,.19,1.37,2.87,2.87,0,0,1-.37,1.63,1.7,1.7,0,0,1-1,.68,7.84,7.84,0,0,1-1.73.15C132.54,60.11,132,60.09,131.4,60.06Z"/><path class="cls-4" d="M138.77,60V51.78h1.15V60Z"/><path class="cls-4" d="M149,60l-4.85-6.29h-.05V60H143V51.78h1.18L149,57.93H149V51.78h1.09V60Z"/><path class="cls-4" d="M153.16,60V51.78h5.72v1h-4.57v2.82h4.06v1h-4.06V60Z"/><path class="cls-4" d="M161.12,60V51.78h6v1h-4.83v2.64h4.19v1h-4.19v2.72h4.83V60Z"/><path class="cls-4" d="M174.13,60.07c-.41,0-.8,0-1.16,0a6.75,6.75,0,0,1-2.41-.32,1.76,1.76,0,0,1-1-1.18,9.93,9.93,0,0,1-.26-2.71,9.93,9.93,0,0,1,.26-2.71,1.78,1.78,0,0,1,1-1.19,6.75,6.75,0,0,1,2.41-.32c.37,0,.75,0,1.15,0a8.65,8.65,0,0,1,1,.13v.9a15.57,15.57,0,0,0-1.84-.12,6.73,6.73,0,0,0-2,.19,1.1,1.1,0,0,0-.72.83,9.4,9.4,0,0,0-.18,2.24,9.35,9.35,0,0,0,.18,2.23,1.1,1.1,0,0,0,.72.83,6.73,6.73,0,0,0,2,.19,13.76,13.76,0,0,0,1.89-.12V60A9.85,9.85,0,0,1,174.13,60.07Z"/><path class="cls-4" d="M179.64,60V52.77h-2.91v-1h7v1h-2.9V60Z"/><path class="cls-4" d="M185.83,60V51.78H187V60Z"/><path class="cls-4" d="M190.92,59.79a1.62,1.62,0,0,1-1-1.14,12.29,12.29,0,0,1-.21-2.75,12.33,12.33,0,0,1,.21-2.76,1.62,1.62,0,0,1,1-1.14,10.6,10.6,0,0,1,5.17,0,1.6,1.6,0,0,1,1,1.14,12.33,12.33,0,0,1,.21,2.76,12.29,12.29,0,0,1-.21,2.75,1.6,1.6,0,0,1-1,1.14,10.6,10.6,0,0,1-5.17,0Zm4.43-.79a1,1,0,0,0,.62-.78,11.77,11.77,0,0,0,.15-2.32,11.82,11.82,0,0,0-.15-2.33,1,1,0,0,0-.62-.78,11.42,11.42,0,0,0-3.69,0,1,1,0,0,0-.64.78,12.06,12.06,0,0,0-.14,2.33,12,12,0,0,0,.14,2.32,1,1,0,0,0,.64.78,11.42,11.42,0,0,0,3.69,0Z"/><path class="cls-4" d="M206,60l-4.85-6.29h-.05V60H200V51.78h1.18L206,57.93h0V51.78h1.1V60Z"/><path class="cls-4" d="M215.16,60.06q-.9,0-1.59-.12V59c1.16.1,2.12.15,2.9.15a11,11,0,0,0,1.14,0,2.21,2.21,0,0,0,.71-.2.69.69,0,0,0,.35-.42,4,4,0,0,0,0-1.55.52.52,0,0,0-.31-.34,3.35,3.35,0,0,0-.85-.16l-2.27-.22a3,3,0,0,1-1.25-.36,1.32,1.32,0,0,1-.56-.7A4,4,0,0,1,213.3,54a2.45,2.45,0,0,1,.38-1.48,1.82,1.82,0,0,1,1.07-.67,8.25,8.25,0,0,1,1.85-.17c.52,0,1,0,1.58.06s.95.09,1.26.14v.91c-.34,0-.75-.08-1.25-.11s-1,0-1.39,0a9.5,9.5,0,0,0-1.2.06,2.16,2.16,0,0,0-.71.2.68.68,0,0,0-.36.39,2.33,2.33,0,0,0-.08.68,2.37,2.37,0,0,0,.08.71.52.52,0,0,0,.31.32,2.42,2.42,0,0,0,.75.15l2.24.23a4.54,4.54,0,0,1,1.24.25,1.17,1.17,0,0,1,.64.65,3.56,3.56,0,0,1,.19,1.37,2.86,2.86,0,0,1-.38,1.63,1.67,1.67,0,0,1-1,.68,7.74,7.74,0,0,1-1.72.15C216.31,60.11,215.77,60.09,215.16,60.06Z"/><path class="cls-4" d="M224.69,60V56.9l-3.32-5.12h1.22l2.66,4h.09l2.65-4h1.2l-3.35,5.12V60Z"/><path class="cls-4" d="M232.31,60.06c-.61,0-1.14-.07-1.6-.12V59c1.16.1,2.12.15,2.9.15a11,11,0,0,0,1.14,0,2.21,2.21,0,0,0,.71-.2.69.69,0,0,0,.35-.42,4,4,0,0,0,0-1.55.52.52,0,0,0-.31-.34,3.35,3.35,0,0,0-.85-.16l-2.27-.22a3,3,0,0,1-1.25-.36,1.32,1.32,0,0,1-.56-.7,4,4,0,0,1-.14-1.15,2.45,2.45,0,0,1,.38-1.48,1.82,1.82,0,0,1,1.07-.67,8.25,8.25,0,0,1,1.85-.17c.52,0,1,0,1.58.06s1,.09,1.26.14v.91c-.33,0-.75-.08-1.25-.11s-1,0-1.39,0a9.5,9.5,0,0,0-1.2.06,2.16,2.16,0,0,0-.71.2.68.68,0,0,0-.36.39,2.33,2.33,0,0,0-.08.68,2.37,2.37,0,0,0,.08.71A.52.52,0,0,0,232,55a2.42,2.42,0,0,0,.75.15l2.24.23a4.54,4.54,0,0,1,1.24.25,1.17,1.17,0,0,1,.64.65,3.56,3.56,0,0,1,.19,1.37,2.86,2.86,0,0,1-.38,1.63,1.67,1.67,0,0,1-1,.68,7.74,7.74,0,0,1-1.72.15C233.45,60.11,232.91,60.09,232.31,60.06Z"/><path class="cls-4" d="M241.66,60V52.77h-2.91v-1h6.95v1h-2.9V60Z"/><path class="cls-4" d="M247.85,60V51.78h6v1H249v2.64h4.19v1H249v2.72h4.83V60Z"/><path class="cls-4" d="M264.63,60V53.54h-.05L261.43,60h-.84l-3.14-6.47h-.06V60h-1.08V51.78h1.55l3.14,6.4h.07l3.13-6.4h1.55V60Z"/><path class="cls-4" d="M270.24,60.06q-.9,0-1.59-.12V59c1.16.1,2.12.15,2.9.15a11,11,0,0,0,1.14,0,2.29,2.29,0,0,0,.71-.2.72.72,0,0,0,.35-.42,4,4,0,0,0,0-1.55.52.52,0,0,0-.31-.34,3.35,3.35,0,0,0-.85-.16l-2.27-.22a3,3,0,0,1-1.25-.36,1.32,1.32,0,0,1-.56-.7,4,4,0,0,1-.14-1.15,2.45,2.45,0,0,1,.38-1.48,1.82,1.82,0,0,1,1.07-.67,8.19,8.19,0,0,1,1.85-.17c.52,0,1,0,1.57.06s1,.09,1.27.14v.91c-.34,0-.75-.08-1.25-.11s-1,0-1.39,0a9.5,9.5,0,0,0-1.2.06,2.16,2.16,0,0,0-.71.2.68.68,0,0,0-.36.39,2.33,2.33,0,0,0-.08.68,2.37,2.37,0,0,0,.08.71.52.52,0,0,0,.31.32,2.41,2.41,0,0,0,.74.15l2.25.23a4.54,4.54,0,0,1,1.24.25,1.17,1.17,0,0,1,.64.65,3.77,3.77,0,0,1,.19,1.37,2.86,2.86,0,0,1-.38,1.63,1.67,1.67,0,0,1-1,.68,7.74,7.74,0,0,1-1.72.15C271.39,60.11,270.84,60.09,270.24,60.06Z"/><path class="cls-4" d="M281.16,60V51.78h1.15V60Z"/><path class="cls-4" d="M291.38,60l-4.84-6.29h-.06V60h-1.1V51.78h1.17l4.78,6.15h.05V51.78h1.1V60Z"/><path class="cls-4" d="M300.09,60.07c-.41,0-.8,0-1.15,0a6.77,6.77,0,0,1-2.42-.32,1.76,1.76,0,0,1-1-1.18,10.35,10.35,0,0,1-.26-2.71,10.35,10.35,0,0,1,.26-2.71,1.78,1.78,0,0,1,1-1.19,6.77,6.77,0,0,1,2.42-.32c.36,0,.75,0,1.15,0a8.14,8.14,0,0,1,1,.13v.9a15.44,15.44,0,0,0-1.84-.12,6.7,6.7,0,0,0-2,.19,1.11,1.11,0,0,0-.73.83,9.54,9.54,0,0,0-.17,2.24,9.5,9.5,0,0,0,.17,2.23,1.11,1.11,0,0,0,.73.83,6.7,6.7,0,0,0,2,.19,13.92,13.92,0,0,0,1.9-.12V60A10.08,10.08,0,0,1,300.09,60.07Z"/><path class="cls-4" d="M303.14,60V58.79h1.27V60Z"/></g></g></svg>