<svg xmlns="http://www.w3.org/2000/svg" xmlns:xlink="http://www.w3.org/1999/xlink" viewBox="0 0 129.67 150.41"><defs><style>.cls-1{opacity:0.81;}.cls-2{fill:#b4babb;}.cls-3{fill:url(#radial-gradient);}</style><radialGradient id="radial-gradient" cx="64.83" cy="75.2" r="70.21" gradientUnits="userSpaceOnUse"><stop offset="0" stop-color="#5bbbf0"/><stop offset="0.16" stop-color="#53b1e9"/><stop offset="0.42" stop-color="#3d95d6"/><stop offset="0.77" stop-color="#1a67b8"/><stop offset="1" stop-color="#0046a2"/></radialGradient></defs><title>logo-2</title><g id="Слой_2" data-name="Слой 2"><g id="Layer_1" data-name="Layer 1"><g class="cls-1"><polygon class="cls-2" points="60.05 104.05 41.18 134.83 57.09 102.36 31.11 127.52 54.59 100.02 23.18 117.93 52.76 97.13 17.88 106.67 51.55 93.94 50.05 93.94 47.99 93.94 0 93.94 0 112.78 37.67 150.41 60.05 150.41 60.05 115.69 52.75 139.41 60.05 104.13 60.05 104.05"/><polygon class="cls-2" points="92 0 68.16 0 68.16 43.39 77.44 13.21 70.12 48.62 89.02 17.79 73.11 50.27 99.08 25.11 75.6 52.61 107.02 34.7 77.43 55.49 112.31 45.96 79.27 58.45 93.79 58.45 97.37 58.45 129.67 58.45 129.67 37.63 92 0"/><polygon class="cls-3" points="129.67 67.64 101.54 67.64 93.03 67.64 82.08 67.64 48.12 67.64 52.13 65.51 37.16 67.64 28.66 67.64 51.49 62.15 15.55 58.18 51.71 58.74 17.88 45.96 52.76 55.49 23.18 34.7 54.59 52.61 31.11 25.11 57.09 50.27 41.18 17.79 60.05 48.58 60.05 48.49 52.75 13.21 60.05 36.93 60.05 0 37.67 0 0 37.63 0 68.01 0 82.39 0.09 82.39 0.09 84.37 73.11 84.37 83.24 84.37 78.06 87.11 97.35 84.37 104.09 84.37 78.7 90.47 114.64 94.44 78.49 93.88 112.31 106.67 77.43 97.13 107.02 117.93 75.6 100.02 99.08 127.52 73.11 102.36 89.02 134.83 70.12 104 77.44 139.41 68.16 109.23 68.16 150.41 92 150.41 129.67 112.78 129.67 82.39 129.67 82.39 129.67 67.64"/></g></g></g></svg>