<svg xmlns="http://www.w3.org/2000/svg" viewBox="0 0 87.43 127.61"><defs><style>.cls-1{fill:#0068bf;}</style></defs><title>phone</title><g id="Слой_2" data-name="Слой 2"><g id="Layer_1" data-name="Layer 1"><path class="cls-1" d="M44.13,20.35a23.19,23.19,0,0,0-4.43.44V24.9a18.53,18.53,0,0,1,4.43-.55,18.94,18.94,0,0,1,18,24.74h4.17a23,23,0,0,0-22.2-28.74Z"/><path class="cls-1" d="M44.13,10.37a32.42,32.42,0,0,0-4.43.31v4a29.52,29.52,0,0,1,4.43-.34A29,29,0,0,1,72.47,49.09h4.06a32.89,32.89,0,0,0-32.4-38.72Z"/><path class="cls-1" d="M44.13,4A39.29,39.29,0,0,1,83,49.09h4a44.36,44.36,0,0,0,.4-5.8A43.27,43.27,0,0,0,39.7.23v4A38.18,38.18,0,0,1,44.13,4Z"/><path class="cls-1" d="M51.45,49.09V35.78H0v91.83H51.45V49.09Zm-5.54,69.33H5.53V41.86H45.91Z"/></g></g></svg>